<svg xmlns="http://www.w3.org/2000/svg" viewBox="0 0 128 128">
  <defs>
    <linearGradient id="c1" x1="0" y1="0" x2="0" y2="1">
      <stop offset="0" stop-color="#ff8f8f"/>
      <stop offset="0.5" stop-color="#ef4444"/>
      <stop offset="1" stop-color="#991b1b"/>
    </linearGradient>
    <filter id="cg1" x="-30%" y="-30%" width="160%" height="160%">
      <feGaussianBlur stdDeviation="4"/>
    </filter>
  </defs>
  <ellipse cx="64" cy="80" rx="44" ry="30" fill="#7f1d1d" opacity="0.5" filter="url(#cg1)"/>
  <!-- legs -->
  <g stroke="#b91c1c" stroke-width="7" stroke-linecap="round" fill="none">
    <path d="M28 78 Q 12 84 8 98"/>
    <path d="M32 90 Q 20 100 20 112"/>
    <path d="M100 78 Q 116 84 120 98"/>
    <path d="M96 90 Q 108 100 108 112"/>
  </g>
  <!-- claws -->
  <g fill="url(#c1)">
    <path d="M24 44 Q 6 36 8 20 Q 22 22 30 32 Q 24 26 18 26 Q 22 36 34 40 Z"/>
    <path d="M104 44 Q 122 36 120 20 Q 106 22 98 32 Q 104 26 110 26 Q 106 36 94 40 Z"/>
  </g>
  <g stroke="#b91c1c" stroke-width="8" stroke-linecap="round" fill="none">
    <path d="M34 46 Q 40 52 46 58"/>
    <path d="M94 46 Q 88 52 82 58"/>
  </g>
  <!-- body -->
  <ellipse cx="64" cy="74" rx="38" ry="28" fill="url(#c1)"/>
  <path d="M30 70 Q 64 52 98 70 Q 64 62 30 70 Z" fill="#fca5a5" opacity="0.6"/>
  <!-- eyes -->
  <g>
    <rect x="48" y="38" width="5" height="14" rx="2.5" fill="#b91c1c"/>
    <rect x="75" y="38" width="5" height="14" rx="2.5" fill="#b91c1c"/>
    <circle cx="50.5" cy="36" r="7.5" fill="#ffffff"/>
    <circle cx="77.5" cy="36" r="7.5" fill="#ffffff"/>
    <circle cx="50.5" cy="36" r="4" fill="#0f172a"/>
    <circle cx="77.5" cy="36" r="4" fill="#0f172a"/>
    <circle cx="49" cy="34.4" r="1.4" fill="#ffffff"/>
    <circle cx="76" cy="34.4" r="1.4" fill="#ffffff"/>
  </g>
  <path d="M54 84 Q 64 92 74 84" stroke="#7f1d1d" stroke-width="4" stroke-linecap="round" fill="none"/>
  <ellipse cx="48" cy="66" rx="10" ry="5" fill="#ffffff" opacity="0.35" transform="rotate(-14 48 66)"/>
</svg>
