<svg xmlns="http://www.w3.org/2000/svg" viewBox="0 0 128 128">
  <defs>
    <linearGradient id="o1" x1="0" y1="0" x2="0" y2="1">
      <stop offset="0" stop-color="#e3b0ff"/>
      <stop offset="0.5" stop-color="#a855f7"/>
      <stop offset="1" stop-color="#6b21a8"/>
    </linearGradient>
    <filter id="og1" x="-30%" y="-30%" width="160%" height="160%">
      <feGaussianBlur stdDeviation="4"/>
    </filter>
  </defs>
  <ellipse cx="64" cy="76" rx="46" ry="36" fill="#581c87" opacity="0.5" filter="url(#og1)"/>
  <!-- tentacles -->
  <g stroke="url(#o1)" stroke-width="11" stroke-linecap="round" fill="none">
    <path d="M34 78 Q 20 96 26 112 Q 14 108 12 96"/>
    <path d="M50 86 Q 44 104 52 116 Q 40 116 36 106"/>
    <path d="M78 86 Q 84 104 76 116 Q 88 116 92 106"/>
    <path d="M94 78 Q 108 96 102 112 Q 114 108 116 96"/>
  </g>
  <g fill="#c084fc" opacity="0.8">
    <circle cx="27" cy="104" r="3"/>
    <circle cx="49" cy="108" r="3"/>
    <circle cx="79" cy="108" r="3"/>
    <circle cx="101" cy="104" r="3"/>
  </g>
  <!-- head -->
  <path d="M64 16 C 92 16 104 40 102 62 Q 100 84 64 86 Q 28 84 26 62 C 24 40 36 16 64 16 Z" fill="url(#o1)"/>
  <path d="M36 40 Q 64 24 92 40 Q 64 32 36 40 Z" fill="#e9d5ff" opacity="0.55"/>
  <!-- eyes -->
  <circle cx="48" cy="56" r="10" fill="#ffffff"/>
  <circle cx="80" cy="56" r="10" fill="#ffffff"/>
  <circle cx="50" cy="58" r="5.5" fill="#1e1b4b"/>
  <circle cx="78" cy="58" r="5.5" fill="#1e1b4b"/>
  <circle cx="48.2" cy="55.5" r="2" fill="#ffffff"/>
  <circle cx="76.2" cy="55.5" r="2" fill="#ffffff"/>
  <path d="M56 72 Q 64 78 72 72" stroke="#4c1d95" stroke-width="3.5" stroke-linecap="round" fill="none"/>
  <ellipse cx="46" cy="30" rx="10" ry="6" fill="#ffffff" opacity="0.4" transform="rotate(-22 46 30)"/>
</svg>
