<svg xmlns="http://www.w3.org/2000/svg" viewBox="0 0 512 512" width="100%" height="100%">
  <defs>
    <linearGradient id="d1" x1="0" y1="0" x2="1" y2="1">
      <stop offset="0%" stop-color="#ffffff"/><stop offset="30%" stop-color="#dbeafe"/><stop offset="70%" stop-color="#3b82f6"/><stop offset="100%" stop-color="#1d4ed8"/>
    </linearGradient>
    <linearGradient id="d2" x1="0.5" y1="0" x2="0.5" y2="1">
      <stop offset="0%" stop-color="#ffffff"/><stop offset="100%" stop-color="#93c5fd"/>
    </linearGradient>
    <filter id="glow">
      <feGaussianBlur stdDeviation="8" result="coloredBlur"/>
      <feMerge><feMergeNode in="coloredBlur"/><feMergeNode in="SourceGraphic"/></feMerge>
    </filter>
  </defs>
  <circle cx="256" cy="256" r="180" fill="#3b82f6" opacity="0.15" filter="url(#glow)"/>
  <polygon points="180,120 332,120 432,256 332,392 180,392 80,256" fill="url(#d1)" stroke="#93c5fd" stroke-width="6" filter="url(#glow)"/>
  <polygon points="210,150 302,150 362,256 302,362 210,362 150,256" fill="url(#d2)" opacity="0.9"/>
  <line x1="180" y1="120" x2="210" y2="150" stroke="#fff" stroke-width="4"/>
  <line x1="332" y1="120" x2="302" y2="150" stroke="#fff" stroke-width="4"/>
  <line x1="432" y1="256" x2="362" y2="256" stroke="#fff" stroke-width="4"/>
  <line x1="332" y1="392" x2="302" y2="362" stroke="#fff" stroke-width="4"/>
  <line x1="180" y1="392" x2="210" y2="362" stroke="#fff" stroke-width="4"/>
  <line x1="80" y1="256" x2="150" y2="256" stroke="#fff" stroke-width="4"/>
  <circle cx="256" cy="256" r="15" fill="#fff" filter="url(#glow)"/>
</svg>